<svg width="37" height="37" viewBox="0 0 37 37" fill="none" xmlns="http://www.w3.org/2000/svg">
<path d="M18.5 37C8.2843 37 0 28.7157 0 18.5C0 8.2843 8.2843 0 18.5 0C28.7157 0 37 8.2843 37 18.5C37 28.7157 28.7157 37 18.5 37Z" fill="#3B579D"/>
<path d="M23.31 37.0002V22.67H28.12L28.8415 17.0867H23.31V13.5199C23.31 11.903 23.7577 10.8004 26.0776 10.8004H29.0339V5.80912C28.5233 5.74252 26.7658 5.59082 24.7234 5.59082C20.461 5.59082 17.5417 8.19192 17.5417 12.9723V17.0904H12.7206V22.6737H17.5417V37.0002H23.31Z" fill="white"/>
</svg>
