<svg width="37" height="37" viewBox="0 0 37 37" fill="none" xmlns="http://www.w3.org/2000/svg">
<path d="M18.5 37C8.2843 37 0 28.7157 0 18.5C0 8.2843 8.2843 0 18.5 0C28.7157 0 37 8.2843 37 18.5C37 28.7157 28.7157 37 18.5 37Z" fill="url(#paint0_linear_1088_147)"/>
<path d="M18.5 9.89489C21.3018 9.89489 21.634 9.90411 22.7412 9.9564C23.7654 10.0025 24.322 10.1748 24.6911 10.3193C25.1801 10.51 25.5307 10.7376 25.8967 11.1036C26.2627 11.4696 26.4903 11.8202 26.681 12.3092C26.8255 12.6783 26.9947 13.2349 27.0439 14.2591C27.0931 15.3663 27.1054 15.6985 27.1054 18.5003C27.1054 21.3021 27.0962 21.6343 27.0439 22.7415C26.9978 23.7657 26.8255 24.3223 26.681 24.6914C26.4903 25.1804 26.2627 25.531 25.8967 25.897C25.5307 26.263 25.1801 26.4906 24.6911 26.6813C24.322 26.8258 23.7654 26.995 22.7412 27.0442C21.634 27.0934 21.3018 27.1057 18.5 27.1057C15.6981 27.1057 15.366 27.0965 14.2588 27.0442C13.2346 26.9981 12.6779 26.8258 12.3089 26.6813C11.8199 26.4906 11.4692 26.263 11.1032 25.897C10.7373 25.531 10.5097 25.1804 10.319 24.6914C10.1744 24.3223 10.0053 23.7657 9.95606 22.7415C9.90685 21.6343 9.89455 21.3021 9.89455 18.5003C9.89455 15.6985 9.90378 15.3663 9.95606 14.2591C10.0022 13.2349 10.1744 12.6783 10.319 12.3092C10.5097 11.8202 10.7373 11.4696 11.1032 11.1036C11.4692 10.7376 11.8199 10.51 12.3089 10.3193C12.6779 10.1748 13.2346 10.0056 14.2588 9.9564C15.366 9.90411 15.6981 9.89489 18.5 9.89489ZM18.5 8.00342C15.6489 8.00342 15.2922 8.01572 14.1727 8.068C13.0562 8.12029 12.2935 8.2956 11.623 8.55702C10.9341 8.82152 10.3467 9.18136 9.76538 9.76571C9.18102 10.3501 8.82425 10.9344 8.5536 11.6264C8.29525 12.2938 8.11687 13.0566 8.06459 14.1761C8.0123 15.2956 8 15.6523 8 18.5034C8 21.3544 8.0123 21.7112 8.06459 22.8307C8.11687 23.9471 8.29218 24.7099 8.5536 25.3803C8.82118 26.0662 9.18102 26.6536 9.76538 27.2349C10.3497 27.8192 10.9341 28.176 11.6261 28.4467C12.2935 28.705 13.0562 28.8834 14.1757 28.9357C15.2952 28.988 15.652 29.0003 18.5031 29.0003C21.3541 29.0003 21.7109 28.988 22.8304 28.9357C23.9468 28.8834 24.7096 28.7081 25.38 28.4467C26.0659 28.1791 26.6533 27.8192 27.2346 27.2349C27.819 26.6505 28.1757 26.0662 28.4464 25.3742C28.7047 24.7068 28.8831 23.944 28.9354 22.8245C28.9877 21.705 29 21.3483 29 18.4972C29 15.6462 28.9877 15.2894 28.9354 14.1699C28.8831 13.0535 28.7078 12.2907 28.4464 11.6203C28.1788 10.9344 27.819 10.347 27.2346 9.76571C26.6502 9.18136 26.0659 8.82459 25.3739 8.55394C24.7065 8.2956 23.9437 8.11721 22.8242 8.06493C21.7078 8.01572 21.351 8.00342 18.5 8.00342Z" fill="white"/>
<path d="M18.5 13.1089C15.5228 13.1089 13.1085 15.5232 13.1085 18.5003C13.1085 21.4775 15.5228 23.8918 18.5 23.8918C21.4771 23.8918 23.8914 21.4775 23.8914 18.5003C23.8914 15.5232 21.4771 13.1089 18.5 13.1089ZM18.5 22.0003C16.5685 22.0003 15 20.4349 15 18.5003C15 16.5658 16.5685 15.0004 18.5 15.0004C20.4314 15.0004 22 16.5658 22 18.5003C22 20.4349 20.4314 22.0003 18.5 22.0003Z" fill="white"/>
<path d="M24.1038 14.1575C24.8002 14.1575 25.3647 13.5929 25.3647 12.8965C25.3647 12.2001 24.8002 11.6355 24.1038 11.6355C23.4073 11.6355 22.8428 12.2001 22.8428 12.8965C22.8428 13.5929 23.4073 14.1575 24.1038 14.1575Z" fill="white"/>
<defs>
<linearGradient id="paint0_linear_1088_147" x1="5.41852" y1="31.5815" x2="31.5815" y2="5.41852" gradientUnits="userSpaceOnUse">
<stop stop-color="#FFD521"/>
<stop offset="0.0551048" stop-color="#FFD020"/>
<stop offset="0.1241" stop-color="#FEC01E"/>
<stop offset="0.2004" stop-color="#FCA71B"/>
<stop offset="0.2821" stop-color="#FA8316"/>
<stop offset="0.3681" stop-color="#F85510"/>
<stop offset="0.4563" stop-color="#F51E09"/>
<stop offset="0.5" stop-color="#F30005"/>
<stop offset="0.5035" stop-color="#F20007"/>
<stop offset="0.5966" stop-color="#E1003B"/>
<stop offset="0.6879" stop-color="#D30067"/>
<stop offset="0.7757" stop-color="#C70088"/>
<stop offset="0.8589" stop-color="#BF00A0"/>
<stop offset="0.9357" stop-color="#BB00AF"/>
<stop offset="1" stop-color="#B900B4"/>
</linearGradient>
</defs>
</svg>
