<svg width="37" height="37" viewBox="0 0 37 37" fill="none" xmlns="http://www.w3.org/2000/svg">
<path d="M18.5 37C28.7173 37 37 28.7173 37 18.5C37 8.28273 28.7173 0 18.5 0C8.28273 0 0 8.28273 0 18.5C0 28.7173 8.28273 37 18.5 37Z" fill="#1DA1F2"/>
<path d="M15.1145 28.2588C23.3192 28.2588 27.8055 21.4601 27.8055 15.5678C27.8055 15.3736 27.8055 15.1793 27.7962 14.9943C28.6657 14.3653 29.4242 13.5791 30.0255 12.6818C29.23 13.0333 28.3697 13.2738 27.4632 13.3848C28.3882 12.8298 29.0912 11.9603 29.4242 10.9151C28.564 11.4238 27.6112 11.7938 26.5937 11.9973C25.7797 11.1278 24.6235 10.5913 23.3377 10.5913C20.8772 10.5913 18.8792 12.5893 18.8792 15.0498C18.8792 15.4013 18.9162 15.7436 18.9995 16.0673C15.2902 15.8823 12.0065 14.1063 9.80499 11.4053C9.42574 12.0621 9.20374 12.8298 9.20374 13.6438C9.20374 15.1886 9.98999 16.5576 11.1925 17.3531C10.4617 17.3346 9.77724 17.1311 9.17599 16.7981V16.8536C9.17599 19.0181 10.7115 20.8126 12.7557 21.2288C12.3857 21.3306 11.988 21.3861 11.581 21.3861C11.2942 21.3861 11.0167 21.3583 10.7392 21.3028C11.3035 23.0788 12.95 24.3646 14.9017 24.4016C13.3755 25.5948 11.4515 26.3071 9.36099 26.3071C9.00024 26.3071 8.64874 26.2886 8.29724 26.2423C10.249 27.5188 12.5985 28.2588 15.1145 28.2588Z" fill="white"/>
</svg>
